<svg width="110" height="24" viewBox="0 0 110 24" fill="none" xmlns="http://www.w3.org/2000/svg">
<path d="M73.2156 13.3521C73.2156 16.4486 70.9395 18.8396 68.1632 18.8396C66.6521 18.8396 65.5545 18.2778 64.8084 17.3225V22.9973H62.1376V8.15776H64.8084V9.38441C65.5545 8.42917 66.6521 7.86737 68.1632 7.86737C70.9368 7.86737 73.2156 10.2583 73.2156 13.3548V13.3521ZM70.5449 13.3521C70.5449 11.6071 69.3229 10.4211 67.6658 10.4211C66.0087 10.4211 64.8084 11.6071 64.8084 13.3521C64.8084 15.0972 66.0303 16.2831 67.6658 16.2831C69.3013 16.2831 70.5449 15.0972 70.5449 13.3521Z" fill="black"/>
<path d="M85.3098 18.5491H82.639V17.3224C81.8928 18.2587 80.7764 18.8395 79.2653 18.8395C76.5106 18.8395 74.2345 16.4485 74.2345 13.352C74.2345 10.2554 76.5106 7.86454 79.2653 7.86454C80.7764 7.86454 81.8956 8.4453 82.639 9.38155V8.15492H85.3098V18.5491ZM82.639 13.352C82.639 11.607 81.4171 10.421 79.76 10.421C78.1029 10.421 76.9026 11.607 76.9026 13.352C76.9026 15.0971 78.1245 16.283 79.76 16.283C81.3955 16.283 82.639 15.0971 82.639 13.352Z" fill="black"/>
<path d="M97.7575 8.15776V18.0526C97.7575 21.4612 95.0866 23 92.3536 23C90.1396 23 88.3582 22.1478 87.4472 20.4653L89.7233 19.1571C90.1585 19.9686 90.8425 20.6117 92.4348 20.6117C94.1108 20.6117 95.1461 19.6971 95.1461 18.0552V16.9318C94.4217 17.9088 93.3025 18.5112 91.8346 18.5112C88.8934 18.5112 86.6794 16.1203 86.6794 13.1893C86.6794 10.2583 88.8962 7.86737 91.8346 7.86737C93.3052 7.86737 94.4217 8.46981 95.1461 9.44689V8.15776H97.7575ZM95.1489 13.1866C95.1489 11.5447 93.927 10.3588 92.2509 10.3588C90.5748 10.3588 89.353 11.5447 89.353 13.1866C89.353 14.8285 90.5748 16.0334 92.2509 16.0334C93.927 16.0334 95.1489 14.8475 95.1489 13.1866Z" fill="black"/>
<path d="M105.007 16.4079C106.042 16.4079 106.869 15.9709 107.327 15.3684L109.481 16.6141C108.507 18.028 106.955 18.8395 104.966 18.8395C101.487 18.8395 99.2948 16.4485 99.2948 13.352C99.2948 10.2554 101.509 7.86454 104.761 7.86454C107.826 7.86454 110 10.2962 110 13.352C110 13.7483 109.959 14.1011 109.897 14.4538H102.093C102.466 15.8243 103.604 16.4079 105.012 16.4079H105.007ZM107.327 12.375C106.993 10.8797 105.877 10.2744 104.758 10.2744C103.331 10.2744 102.358 11.0425 102.047 12.375H107.327Z" fill="black"/>
<path d="M7.48186 18.5491L3.71347 13.8297V18.5491H1.04262L1 4H3.67085L3.71347 12.7306L7.27371 8.15767H10.4609L6.30053 13.2924L10.5852 18.5518H7.47916L7.48186 18.5491Z" fill="black"/>
<path d="M22.4583 18.5491H19.7875V17.3224C19.0414 18.2587 17.9249 18.8395 16.4138 18.8395C13.6591 18.8395 11.3829 16.4485 11.3829 13.352C11.3829 10.2554 13.6591 7.86454 16.4138 7.86454C17.9249 7.86454 19.0441 8.44532 19.7875 9.38156V8.15493H22.4583V18.5491ZM19.7875 13.352C19.7875 11.607 18.5656 10.421 16.9084 10.421C15.2514 10.421 14.051 11.607 14.051 13.352C14.051 15.0971 15.2729 16.283 16.9084 16.283C18.544 16.283 19.7875 15.0971 19.7875 13.352Z" fill="black"/>
<path d="M31.3174 18.5492L27.549 13.8297V18.5492H24.8781L24.8355 4.00007H27.5064L27.549 12.7306L31.1093 8.15774H34.2964L30.136 13.2924L34.4208 18.5519H31.3147L31.3174 18.5492Z" fill="black"/>
<path d="M45.5393 18.5491H42.8685V17.3224C42.1224 18.2587 41.0058 18.8395 39.4947 18.8395C36.74 18.8395 34.4639 16.4485 34.4639 13.352C34.4639 10.2554 36.74 7.86454 39.4947 7.86454C41.0058 7.86454 42.125 8.44532 42.8685 9.38156V8.15493H45.5393V18.5491ZM42.8685 13.352C42.8685 11.607 41.6466 10.421 39.9894 10.421C38.3323 10.421 37.1321 11.607 37.1321 13.352C37.1321 15.0971 38.354 16.283 39.9894 16.283C41.6249 16.283 42.8685 15.0971 42.8685 13.352Z" fill="black"/>
<path d="M47.0469 13.352C47.0469 10.2554 49.4691 7.86454 52.513 7.86454C55.5569 7.86454 58.0007 10.2554 58.0007 13.352C58.0007 16.4485 55.5569 18.8395 52.513 18.8395C49.4691 18.8395 47.0469 16.4485 47.0469 13.352ZM55.3271 13.352C55.3271 11.6695 54.1052 10.4834 52.5102 10.4834C50.9153 10.4834 49.7151 11.6695 49.7151 13.352C49.7151 15.0346 50.937 16.2205 52.5102 16.2205C54.0836 16.2205 55.3271 15.0346 55.3271 13.352Z" fill="black"/>
</svg>
